HIERARCHY
ROOT hip
{
	OFFSET 0.000000 0.000000 0.000000 
	CHANNELS 6 Xposition Yposition Zposition Xrotation Zrotation Yrotation
	JOINT abdomen
	{
		OFFSET 0.000000 3.402643 0.000000 
		CHANNELS 3 Xrotation Zrotation Yrotation
		JOINT chest
		{
			OFFSET 0.000000 8.438565 -0.680529 
			CHANNELS 3 Xrotation Zrotation Yrotation
			JOINT neck
			{
				OFFSET 0.000000 10.207942 -0.272212 
				CHANNELS 3 Xrotation Zrotation Yrotation
				JOINT head
				{
					OFFSET 0.000000 3.130431 0.000000 
					CHANNELS 3 Xrotation Zrotation Yrotation
					End Site
					{
						OFFSET 0.000000 3.130435 0.000000 
					}
				}
			}
			JOINT lCollar
			{
				OFFSET 3.470700 6.669187 -0.816635 
				CHANNELS 3 Yrotation Zrotation Xrotation
				JOINT lShldr
				{
					OFFSET 3.198488 0.000000 0.000000 
					CHANNELS 3 Zrotation Yrotation Xrotation
					JOINT lForeArm
					{
						OFFSET 10.139888 0.000000 0.000000 
						CHANNELS 3 Yrotation Zrotation Xrotation
						JOINT lHand
						{
							OFFSET 8.370511 0.000000 0.000000 
							CHANNELS 3 Zrotation Yrotation Xrotation
							End Site
							{
								OFFSET 4.083176 0.000000 0.000000 
							}
						}
					}
				}
			}
			JOINT rCollar
			{
				OFFSET -3.470700 6.669187 -0.816635 
				CHANNELS 3 Yrotation Zrotation Xrotation
				JOINT rShldr
				{
					OFFSET -3.198488 0.000000 0.000000 
					CHANNELS 3 Zrotation Yrotation Xrotation
					JOINT rForeArm
					{
						OFFSET -10.139888 0.000000 0.000000 
						CHANNELS 3 Yrotation Zrotation Xrotation
						JOINT rHand
						{
							OFFSET -8.370511 0.000000 0.000000 
							CHANNELS 3 Zrotation Yrotation Xrotation
							End Site
							{
								OFFSET -4.083176 0.000000 0.000000 
							}
						}
					}
				}
			}
		}
	}
	JOINT lThigh
	{
		OFFSET 5.308129 -1.633274 1.361059 
		CHANNELS 3 Xrotation Zrotation Yrotation
		JOINT lShin
		{
			OFFSET -2.041588 -20.007561 0.000000 
			CHANNELS 3 Xrotation Zrotation Yrotation
			JOINT lFoot
			{
				OFFSET 0.000000 -19.190928 -1.224953 
				CHANNELS 3 Xrotation Yrotation Zrotation
				End Site
				{
					OFFSET 0.000000 -2.449906 4.627600 
				}
			}
		}
	}
	JOINT rThigh
	{
		OFFSET -5.308129 -1.633274 1.361059 
		CHANNELS 3 Xrotation Zrotation Yrotation
		JOINT rShin
		{
			OFFSET 2.041588 -20.007561 0.000000 
			CHANNELS 3 Xrotation Zrotation Yrotation
			JOINT rFoot
			{
				OFFSET 0.000000 -19.190928 -1.224953 
				CHANNELS 3 Xrotation Yrotation Zrotation
				End Site
				{
					OFFSET 0.000000 -2.449906 4.627600 
				}
			}
		}
	}
}
MOTION
Frames: 8
Frame Time: 0.016667
-0.723780 37.822136 -0.868859 7.012020 -0.533092 -4.548080 -13.327900 3.242270 2.577910 12.331800 1.324130 1.468830 22.821600 -27.699699 24.316500 -8.603520 0.000000 0.000000 2.000000 -2.000000 0.000000 -78.919601 -3.771580 144.098999 58.506401 -0.286271 0.116631 5.492380 -0.939630 -139.852997 -2.000000 2.000000 0.000000 77.161903 -1.226640 132.067993 -61.934101 0.279173 0.120650 6.210330 2.441940 -136.369995 -57.081478 2.716646 4.103778 44.128010 2.268507 3.098541 2.904505 3.788053 -0.875580 -31.505354 5.903461 -12.824723 67.716454 -0.155792 -4.458005 -27.684961 -9.261233 -4.304230 
-0.738742 38.029446 -1.311527 7.060590 -0.203523 -4.527200 -13.355500 3.121920 2.615250 12.224900 1.130520 1.494640 22.637300 -27.866800 24.489700 -8.603520 0.000000 0.000000 2.000000 -2.000000 0.000000 -78.958099 -3.430520 143.716995 58.516102 -0.286251 0.116644 5.490990 -0.907444 -140.253998 -2.000000 2.000000 0.000000 76.887497 -1.372210 131.492004 -61.807201 0.279440 0.120507 6.204410 2.451790 -136.438004 -57.314106 2.565230 1.995705 46.862988 2.080515 3.261890 0.642766 3.196657 -0.412867 -31.700762 5.590389 -12.888273 66.833885 -0.212708 -4.425524 -27.363033 -9.226136 -4.186833 
-0.719891 38.251156 -1.733257 7.119270 0.348852 -4.614570 -13.372700 2.918820 2.652790 12.098500 0.927305 1.512520 22.536501 -27.981800 24.639200 -8.603520 0.000000 0.000000 2.000000 -2.000000 0.000000 -79.035301 -3.412110 143.130997 58.135300 -0.287024 0.116166 5.491140 -0.907572 -140.263000 -2.000000 2.000000 0.000000 76.613297 -1.459390 131.042007 -61.670399 0.279727 0.120353 6.202320 2.453780 -136.487000 -57.214745 2.263515 0.439092 49.588490 1.858670 3.437298 -0.208097 3.164228 -0.151836 -32.013145 5.033792 -12.635004 66.265800 -0.247575 -4.418673 -27.112881 -8.616020 -3.741855 
-0.701038 38.472740 -2.154985 7.188390 0.901066 -4.700670 -13.390300 2.721830 2.679070 11.981700 0.733892 1.529980 22.450100 -28.096399 24.780300 -8.603520 0.000000 0.000000 2.000000 -2.000000 0.000000 -79.112602 -3.393690 142.544998 57.764198 -0.287775 0.115697 5.497510 -0.900165 -140.272995 -2.000000 2.000000 0.000000 76.329300 -1.556360 130.602997 -61.523998 0.280035 0.120187 6.206980 2.462840 -136.535995 -57.214180 1.964924 -1.124224 52.439541 1.634071 3.612706 -1.052390 3.118436 0.104606 -32.363583 4.483746 -12.403430 65.715218 -0.317952 -4.384499 -26.868683 -8.006452 -3.335530 
-0.648199 38.697441 -2.562211 7.335990 1.336630 -4.866820 -13.379800 2.597610 2.678990 11.943000 0.550362 1.537730 22.327200 -28.134300 24.977501 -8.603520 0.000000 0.000000 2.000000 -2.000000 0.000000 -79.248901 -3.267330 142.233002 57.451698 -0.288405 0.115297 5.505180 -0.867324 -140.664001 -2.000000 2.000000 0.000000 75.840500 -1.438760 130.339005 -61.543499 0.279994 0.120209 6.194970 2.496110 -136.828003 -56.926498 1.796652 -2.351301 55.297077 1.421689 3.749274 -1.456472 2.982435 0.282933 -32.799690 4.038625 -12.285962 64.941467 -0.351297 -4.365727 -26.120190 -7.897488 -3.145881 
-0.595357 38.922276 -2.969449 7.484070 1.771890 -5.030750 -13.369600 2.479460 2.667480 11.894400 0.357207 1.547140 22.227699 -28.182600 25.164400 -8.603520 0.000000 0.000000 2.000000 -2.000000 0.000000 -79.375298 -3.140980 141.910004 57.139198 -0.289032 0.114894 5.502450 -0.833908 -141.046005 -2.000000 2.000000 0.000000 75.351700 -1.321170 130.076004 -61.572800 0.279932 0.120242 6.176010 2.522390 -137.119995 -56.676334 1.636049 -3.552486 58.115505 1.189437 3.889241 -1.777562 2.804368 0.462596 -33.189163 3.608370 -12.163917 64.274963 -0.388680 -4.343834 -25.490040 -7.814041 -2.953668 
-0.516109 39.110237 -3.352140 7.583930 2.236150 -5.268600 -13.398200 2.390370 2.678400 11.777300 0.221978 1.557520 22.495701 -28.632900 25.135201 -8.603520 0.000000 0.000000 2.000000 -2.000000 0.000000 -79.550797 -2.907050 141.675003 56.787601 -0.289735 0.114437 5.513370 -0.812938 -141.212006 -2.000000 2.000000 0.000000 74.745903 -1.233010 129.899994 -61.348202 0.280403 0.119986 6.180300 2.518370 -137.022995 -56.085468 1.479354 -4.526531 60.853924 0.975439 4.015785 -1.721238 2.304449 0.577803 -33.582062 3.204068 -12.026148 63.784389 -0.427898 -4.323898 -25.136538 -7.708220 -2.828333 
-0.436858 39.298203 -3.734865 7.684360 2.700180 -5.504900 -13.426900 2.310800 2.686720 11.660100 0.086833 1.578200 22.780100 -29.071899 25.098200 -8.603520 0.000000 0.000000 2.000000 -2.000000 0.000000 -79.735901 -2.682900 141.429993 56.436100 -0.290436 0.113976 5.518100 -0.799508 -141.378006 -2.000000 2.000000 0.000000 74.140099 -1.154620 129.725006 -61.133301 0.280853 0.119739 6.187650 2.507230 -136.925003 -55.484493 1.332813 -5.499006 63.504360 0.754456 4.144105 -1.588140 1.807703 0.703850 -33.930622 2.808913 -11.883454 63.255596 -0.460006 -4.319560 -24.805101 -7.575735 -2.656615 
